{"title":"The Change Up 2011 CAM XViD","uid":6604526,"size":1008600761,"categoryP":"video","categoryS":"movies","magnet":"?xt=urn:btih:279ddced5273f5e8f8530dfb844a70bd47dedefa&amp;dn=The+Change+Up+2011+CAM+XViD&amp;tr=udp%3A%2F%2Ftracker.openbittorrent.com%3A80&amp;tr=udp%3A%2F%2Fopen.demonii.com%3A1337&amp;tr=udp%3A%2F%2Ftracker.coppersurfer.tk%3A6969&amp;tr=udp%3A%2F%2Fexodus.desync.com%3A6969","seeders":0,"leechers":1,"uploader":"Zelulzseeder","files":3,"time":1313340818,"description":"[img]http://www.leetleech.org/images/87736814272273254644.jpg[/img]\n\nThe Change Up 2011 CAM XViD\n\n\nDirector: David Dobkin\nWriters: Jon Lucas, Scott Moore\nStars: Jason Bateman, Ryan Reynolds and Olivia Wilde\n\nPlot:\nA comedy in which a married father accidentally switches bodies with his best friend, leading to a series of wildly complex difficulties.\n\nIMDB: http://www.imdb.com/title/tt1488555/\n\n\nFormat : AVI\nFormat/Info : Audio Video Interleave\nFile size : 962 MiB\nDuration : 1h 46mn\nOverall bit rate : 1 258 Kbps\nWriting library : VirtualDub build 32842/release\n\nVideo\nID : 0\nFormat : MPEG-4 Visual\nFormat profile : Advanced Simple@L5\nFormat settings, BVOP : 2\nFormat settings, QPel : No\nFormat settings, GMC : No warppoints\nFormat settings, Matrix : Default (H.263)\nMuxing mode : Packed bitstream\nCodec ID : XVID\nCodec ID/Hint : XviD\nDuration : 1h 46mn\nBit rate : 1 118 Kbps\nWidth : 642 pixels\nHeight : 304 pixels\nDisplay aspect ratio : 2.2:1\nFrame rate : 29.000 fps\nColor space : YUV\nChroma subsampling : 4:2:0\nBit depth : 8 bits\nScan type : Progressive\nCompression mode : Lossy\nBits/(Pixel*Frame) : 0.198\nStream size : 855 MiB (89%)\nWriting library : XviD 64\n\nAudio\nID : 1\nFormat : MPEG Audio\nFormat version : Version 1\nFormat profile : Layer 3\nCodec ID : 55\nCodec ID/Hint : MP3\nDuration : 1h 46mn\nBit rate mode : Constant\nBit rate : 128 Kbps\nChannel(s) : 2 channels\nSampling rate : 48.0 KHz\nCompression mode : Lossy\nStream size : 97.9 MiB (10%)\nAlignment : Split accross interleaves\nInterleave, duration : 34 ms (1.00 video frame)\nInterleave, preload duration : 500 ms\n\n\nScreens:\n\n[img]http://www.leetleech.org/images/55138750578766414728.png[/img]\n[img]http://www.leetleech.org/images/56641105783419975043.png[/img]\n[img]http://www.leetleech.org/images/75359403756807624059.png[/img]\n[img]http://www.leetleech.org/images/44801500037677142036.png[/img]\n","torrent":{"xt":"urn:btih:279ddced5273f5e8f8530dfb844a70bd47dedefa","amp;dn":"The+Change+Up+2011+CAM+XViD","amp;tr":["udp%3A%2F%2Ftracker.openbittorrent.com%3A80","udp%3A%2F%2Fopen.demonii.com%3A1337","udp%3A%2F%2Ftracker.coppersurfer.tk%3A6969","udp%3A%2F%2Fexodus.desync.com%3A6969"],"infoHash":"279ddced5273f5e8f8530dfb844a70bd47dedefa","infoHashBuffer":{"type":"Buffer","data":[39,157,220,237,82,115,245,232,248,83,13,251,132,74,112,189,71,222,222,250]},"announce":[],"urlList":[]}}